<svg xmlns="http://www.w3.org/2000/svg" viewBox="0 0 1200 675" width="1200" height="675">
<defs>
<linearGradient id="bg" x1="0" y1="0" x2="1" y2="1"><stop offset="0" stop-color="#0b3d2e"/><stop offset="1" stop-color="#5b2167"/></linearGradient>
<radialGradient id="gl" cx="0.7" cy="0.48" r="0.55"><stop offset="0" stop-color="#fbbf24" stop-opacity="0.55"/><stop offset="0.6" stop-color="#fbbf24" stop-opacity="0.08"/><stop offset="1" stop-color="#fbbf24" stop-opacity="0"/></radialGradient>
<radialGradient id="vi" cx="0.5" cy="0.5" r="0.75"><stop offset="0.6" stop-color="#000" stop-opacity="0"/><stop offset="1" stop-color="#000" stop-opacity="0.55"/></radialGradient>
<linearGradient id="tt" x1="0" y1="0" x2="0" y2="1"><stop offset="0" stop-color="#ffffff"/><stop offset="1" stop-color="#bef264"/></linearGradient>
<filter id="sh" x="-30%" y="-30%" width="160%" height="160%"><feGaussianBlur stdDeviation="16"/></filter>
<filter id="bl" x="-50%" y="-50%" width="200%" height="200%"><feGaussianBlur stdDeviation="9"/></filter>
<filter id="ts" x="-10%" y="-10%" width="120%" height="140%"><feDropShadow dx="0" dy="6" stdDeviation="8" flood-color="#000" flood-opacity="0.45"/></filter>
<radialGradient id="co9" cx="0.5" cy="0.35" r="0.7"><stop offset="0" stop-color="#bef264"/><stop offset="0.55" stop-color="#4ade80"/><stop offset="1" stop-color="#16a34a"/></radialGradient><linearGradient id="dt9" x1="0" y1="0" x2="1" y2="1"><stop offset="0" stop-color="#8b5a2b"/><stop offset="1" stop-color="#5b3716"/></linearGradient><radialGradient id="rb9" cx="0.38" cy="0.3" r="0.75"><stop offset="0" stop-color="#fff"/><stop offset="0.7" stop-color="#ede9fe"/><stop offset="1" stop-color="#c4b5fd"/></radialGradient><radialGradient id="mt9"><stop offset="0" stop-color="#fffbeb"/><stop offset="0.3" stop-color="#fde68a" stop-opacity="0.9"/><stop offset="1" stop-color="#fb923c" stop-opacity="0"/></radialGradient><radialGradient id="qc" cx="0.35" cy="0.3"><stop offset="0" stop-color="#fecaca"/><stop offset="0.45" stop-color="#ef4444"/><stop offset="1" stop-color="#991b1b"/></radialGradient><radialGradient id="qb" cx="0.35" cy="0.3"><stop offset="0" stop-color="#fed7aa"/><stop offset="0.5" stop-color="#f97316"/><stop offset="1" stop-color="#9a3412"/></radialGradient>
</defs>
<rect width="1200" height="675" fill="url(#bg)"/>
<rect width="1200" height="675" fill="url(#gl)"/>
<g fill="#fff"><circle cx="798" cy="584" r="2.2" opacity="0.25"/><circle cx="956" cy="56" r="3" opacity="0.6"/><circle cx="755" cy="500" r="3" opacity="0.4"/><circle cx="660" cy="294" r="1.6" opacity="0.4"/><circle cx="807" cy="57" r="1.2" opacity="0.25"/><circle cx="241" cy="276" r="3" opacity="0.4"/><circle cx="911" cy="424" r="1.2" opacity="0.4"/><circle cx="437" cy="34" r="1.6" opacity="0.4"/><circle cx="887" cy="241" r="1.6" opacity="0.6"/><circle cx="365" cy="255" r="3" opacity="0.4"/><circle cx="220" cy="276" r="1.6" opacity="0.25"/><circle cx="101" cy="405" r="3" opacity="0.25"/><circle cx="109" cy="221" r="2.2" opacity="0.25"/><circle cx="1042" cy="95" r="3" opacity="0.25"/><circle cx="924" cy="546" r="3" opacity="0.6"/><circle cx="1005" cy="92" r="1.6" opacity="0.25"/><circle cx="941" cy="600" r="2.2" opacity="0.6"/><circle cx="1135" cy="591" r="1.6" opacity="0.6"/><circle cx="665" cy="504" r="1.6" opacity="0.4"/><circle cx="322" cy="223" r="1.6" opacity="0.6"/><circle cx="407" cy="463" r="1.2" opacity="0.4"/><circle cx="1052" cy="289" r="1.6" opacity="0.6"/><circle cx="139" cy="478" r="3" opacity="0.4"/><circle cx="202" cy="36" r="3" opacity="0.6"/><circle cx="84" cy="119" r="1.2" opacity="0.6"/><circle cx="320" cy="222" r="3" opacity="0.4"/></g>
<circle cx="1010" cy="150" r="150" fill="url(#mt9)"/><circle cx="1010" cy="150" r="44" fill="#fff7d6"/><ellipse cx="830" cy="600" rx="330" ry="40" fill="#000" opacity="0.5" filter="url(#sh)"/><path d="M830 305 L1160 455 L830 605 L500 455Z" fill="#5b3716" stroke="#3b2410" stroke-width="30" stroke-linejoin="round"/><path d="M830 250 L1160 400 L830 550 L500 400Z" fill="url(#co9)" stroke="#4ade80" stroke-width="30" stroke-linejoin="round"/><path d="M668 356 L742 393 L742 404 L668 367Z" fill="#5b3a1a"/><path d="M816 356 L742 393 L742 404 L816 367Z" fill="#45290f"/><path d="M742 319 L816 356 L742 393 L668 356Z" fill="url(#dt9)"/><path d="M697.6 359.7 L749.4 333.8" stroke="#2a1708" stroke-opacity="0.25" stroke-width="4" stroke-linecap="round"/><path d="M716.1 368.9 L767.9 343.1" stroke="#2a1708" stroke-opacity="0.25" stroke-width="4" stroke-linecap="round"/><path d="M734.6 378.2 L786.4 352.3" stroke="#2a1708" stroke-opacity="0.25" stroke-width="4" stroke-linecap="round"/><path d="M742 360 Q737 326 742 294" stroke="#3f6212" stroke-width="6" fill="none" stroke-linecap="round"/><path transform="translate(742 336) rotate(-160)" d="M0 0 C9.8 -11.8 22.4 -10.6 28 0 C22.4 9.5 9.8 10.1 0 0Z" fill="#22c55e"/><path transform="translate(742 322) rotate(-20)" d="M0 0 C9.8 -11.8 22.4 -10.6 28 0 C22.4 9.5 9.8 10.1 0 0Z" fill="#22c55e"/><path transform="translate(742 301) rotate(-140)" d="M0 0 C8.4 -10.1 19.2 -9.1 24 0 C19.2 8.2 8.4 8.6 0 0Z" fill="#22c55e"/><circle cx="726" cy="326" r="12" fill="url(#qc)"/><circle cx="722" cy="322" r="3.5" fill="#fff" opacity="0.6"/><circle cx="759" cy="314" r="12" fill="url(#qc)"/><circle cx="755" cy="310" r="3.5" fill="#fff" opacity="0.6"/><circle cx="740" cy="294" r="12" fill="url(#qc)"/><circle cx="736" cy="290" r="3.5" fill="#fff" opacity="0.6"/><path d="M844 356 L918 393 L918 404 L844 367Z" fill="#5b3a1a"/><path d="M992 356 L918 393 L918 404 L992 367Z" fill="#45290f"/><path d="M918 319 L992 356 L918 393 L844 356Z" fill="url(#dt9)"/><path d="M873.6 359.7 L925.4 333.8" stroke="#2a1708" stroke-opacity="0.25" stroke-width="4" stroke-linecap="round"/><path d="M892.1 368.9 L943.9 343.1" stroke="#2a1708" stroke-opacity="0.25" stroke-width="4" stroke-linecap="round"/><path d="M910.6 378.2 L962.4 352.3" stroke="#2a1708" stroke-opacity="0.25" stroke-width="4" stroke-linecap="round"/><path transform="translate(912 354) rotate(-165)" d="M0 0 C12.6 -15.1 28.8 -13.7 36 0 C28.8 12.2 12.6 13 0 0Z" fill="#22c55e"/><path transform="translate(920 350) rotate(-120)" d="M0 0 C10.5 -12.6 24 -11.4 30 0 C24 10.2 10.5 10.8 0 0Z" fill="#22c55e"/><path transform="translate(918 352) rotate(-40)" d="M0 0 C11.2 -13.4 25.6 -12.2 32 0 C25.6 10.9 11.2 11.5 0 0Z" fill="#22c55e"/><ellipse cx="920" cy="346" rx="16" ry="21" fill="url(#qb)"/><ellipse cx="948" cy="346" rx="16" ry="21" fill="url(#qb)"/><ellipse cx="934" cy="346" rx="18" ry="23" fill="url(#qb)"/><path d="M934 324 q2 -10 9 -12" stroke="#4d7c0f" stroke-width="5" fill="none" stroke-linecap="round"/><ellipse cx="927" cy="336" rx="6" ry="4" fill="#fff" opacity="0.45"/><path d="M756 400 L830 437 L830 448 L756 411Z" fill="#5b3a1a"/><path d="M904 400 L830 437 L830 448 L904 411Z" fill="#45290f"/><path d="M830 363 L904 400 L830 437 L756 400Z" fill="url(#dt9)"/><path d="M785.6 403.7 L837.4 377.8" stroke="#2a1708" stroke-opacity="0.25" stroke-width="4" stroke-linecap="round"/><path d="M804.1 412.9 L855.9 387.1" stroke="#2a1708" stroke-opacity="0.25" stroke-width="4" stroke-linecap="round"/><path d="M822.6 422.2 L874.4 396.3" stroke="#2a1708" stroke-opacity="0.25" stroke-width="4" stroke-linecap="round"/><path d="M844 444 L918 481 L918 492 L844 455Z" fill="#5b3a1a"/><path d="M992 444 L918 481 L918 492 L992 455Z" fill="#45290f"/><path d="M918 407 L992 444 L918 481 L844 444Z" fill="url(#dt9)"/><path d="M873.6 447.7 L925.4 421.8" stroke="#2a1708" stroke-opacity="0.25" stroke-width="4" stroke-linecap="round"/><path d="M892.1 456.9 L943.9 431.1" stroke="#2a1708" stroke-opacity="0.25" stroke-width="4" stroke-linecap="round"/><path d="M910.6 466.2 L962.4 440.3" stroke="#2a1708" stroke-opacity="0.25" stroke-width="4" stroke-linecap="round"/><path d="M918 448 Q913 414 918 382" stroke="#3f6212" stroke-width="6" fill="none" stroke-linecap="round"/><path transform="translate(918 424) rotate(-160)" d="M0 0 C9.8 -11.8 22.4 -10.6 28 0 C22.4 9.5 9.8 10.1 0 0Z" fill="#22c55e"/><path transform="translate(918 410) rotate(-20)" d="M0 0 C9.8 -11.8 22.4 -10.6 28 0 C22.4 9.5 9.8 10.1 0 0Z" fill="#22c55e"/><path transform="translate(918 389) rotate(-140)" d="M0 0 C8.4 -10.1 19.2 -9.1 24 0 C19.2 8.2 8.4 8.6 0 0Z" fill="#22c55e"/><circle cx="902" cy="414" r="12" fill="url(#qc)"/><circle cx="898" cy="410" r="3.5" fill="#fff" opacity="0.6"/><circle cx="935" cy="402" r="12" fill="url(#qc)"/><circle cx="931" cy="398" r="3.5" fill="#fff" opacity="0.6"/><circle cx="916" cy="382" r="12" fill="url(#qc)"/><circle cx="912" cy="378" r="3.5" fill="#fff" opacity="0.6"/><path d="M668 444 L742 481 L742 492 L668 455Z" fill="#5b3a1a"/><path d="M816 444 L742 481 L742 492 L816 455Z" fill="#45290f"/><path d="M742 407 L816 444 L742 481 L668 444Z" fill="url(#dt9)"/><path d="M697.6 447.7 L749.4 421.8" stroke="#2a1708" stroke-opacity="0.25" stroke-width="4" stroke-linecap="round"/><path d="M716.1 456.9 L767.9 431.1" stroke="#2a1708" stroke-opacity="0.25" stroke-width="4" stroke-linecap="round"/><path d="M734.6 466.2 L786.4 440.3" stroke="#2a1708" stroke-opacity="0.25" stroke-width="4" stroke-linecap="round"/><path d="M742 448 Q737 404 742 358" stroke="#3f6212" stroke-width="6" fill="none" stroke-linecap="round"/><path transform="translate(742 414) rotate(-165)" d="M0 0 C11.2 -13.4 25.6 -12.2 32 0 C25.6 10.9 11.2 11.5 0 0Z" fill="#22c55e"/><path transform="translate(742 400) rotate(-15)" d="M0 0 C11.2 -13.4 25.6 -12.2 32 0 C25.6 10.9 11.2 11.5 0 0Z" fill="#22c55e"/><ellipse cx="742" cy="336" rx="7" ry="16" fill="#facc15" transform="rotate(0 742 358)"/><ellipse cx="742" cy="336" rx="7" ry="16" fill="#facc15" transform="rotate(30 742 358)"/><ellipse cx="742" cy="336" rx="7" ry="16" fill="#facc15" transform="rotate(60 742 358)"/><ellipse cx="742" cy="336" rx="7" ry="16" fill="#facc15" transform="rotate(90 742 358)"/><ellipse cx="742" cy="336" rx="7" ry="16" fill="#facc15" transform="rotate(120 742 358)"/><ellipse cx="742" cy="336" rx="7" ry="16" fill="#facc15" transform="rotate(150 742 358)"/><ellipse cx="742" cy="336" rx="7" ry="16" fill="#facc15" transform="rotate(180 742 358)"/><ellipse cx="742" cy="336" rx="7" ry="16" fill="#facc15" transform="rotate(210 742 358)"/><ellipse cx="742" cy="336" rx="7" ry="16" fill="#facc15" transform="rotate(240 742 358)"/><ellipse cx="742" cy="336" rx="7" ry="16" fill="#facc15" transform="rotate(270 742 358)"/><ellipse cx="742" cy="336" rx="7" ry="16" fill="#facc15" transform="rotate(300 742 358)"/><ellipse cx="742" cy="336" rx="7" ry="16" fill="#facc15" transform="rotate(330 742 358)"/><circle cx="742" cy="358" r="14" fill="#78350f"/><circle cx="742" cy="358" r="9" fill="#92400e"/><g transform="translate(830 406) scale(1.9)"><ellipse cx="0" cy="2" rx="20" ry="6" fill="#1c0f05" opacity="0.3"/><ellipse cx="-18" cy="-27" rx="5" ry="9" fill="url(#rb9)" transform="rotate(25 -18 -27)"/><ellipse cx="18" cy="-30" rx="5" ry="9" fill="url(#rb9)" transform="rotate(-60 18 -30)"/><ellipse cx="0" cy="-24" rx="17" ry="19" fill="url(#rb9)"/><ellipse cx="0" cy="-19" rx="8" ry="7" fill="#c4b5fd" opacity="0.5"/><g transform="translate(0 -54)"><path d="M3 -18 q2 -9 6 -12" stroke="#a78bfa" stroke-width="2.4" fill="none" stroke-linecap="round"/><circle cx="9" cy="-31" r="4.5" fill="#fde047"/><ellipse cx="-24" cy="1" rx="4.5" ry="7" fill="#a78bfa"/><ellipse cx="24" cy="1" rx="4.5" ry="7" fill="#a78bfa"/><ellipse rx="24" ry="20" fill="url(#rb9)"/><rect x="-18" y="-11" width="36" height="22" rx="11" fill="#141a3c"/><g stroke="#5eeefc" stroke-width="2.6" fill="none" stroke-linecap="round"><path d="M-11 0 q4 -5 8 0"/><path d="M3 0 q4 -5 8 0"/><path d="M-4 4 q4 4 8 0"/></g><ellipse cx="-10" cy="-14" rx="7" ry="3" fill="#fff" opacity="0.7"/></g></g><polygon points="930,236 933.5,245.2 943.3,245.7 935.6,251.8 938.2,261.3 930,255.9 921.8,261.3 924.4,251.8 916.7,245.7 926.5,245.2" fill="#fef08a" stroke-linejoin="round" /><polygon points="965,282 967,287.3 972.6,287.5 968.2,291 969.7,296.5 965,293.4 960.3,296.5 961.8,291 957.4,287.5 963,287.3" fill="#fef08a" stroke-linejoin="round" /><polygon points="700,270 702.5,276.6 709.5,276.9 704,281.3 705.9,288.1 700,284.2 694.1,288.1 696,281.3 690.5,276.9 697.5,276.6" fill="#fef08a" stroke-linejoin="round" /><polygon points="740,239 741.5,243 745.7,243.1 742.4,245.8 743.5,249.9 740,247.5 736.5,249.9 737.6,245.8 734.3,243.1 738.5,243" fill="#fef08a" stroke-linejoin="round" /><g transform="translate(560 170)"><path d="M0 0 q-14 -16 -18 0 q4 12 18 0 q14 -16 18 0 q-4 12 -18 0z" fill="#f0abfc"/></g>
<rect width="1200" height="675" fill="url(#vi)"/>
<g font-family="ui-rounded, 'SF Pro Rounded', system-ui, -apple-system, 'Segoe UI', Roboto, 'Helvetica Neue', Arial, sans-serif">
<rect x="72" y="156" width="124" height="34" rx="17" fill="#bef264" fill-opacity="0.16" stroke="#bef264" stroke-opacity="0.5"/>
<text x="134" y="179" text-anchor="middle" font-size="15" font-weight="800" letter-spacing="2.4" fill="#bef264">THƯ GIÃN</text>
<text font-size="78" font-weight="900" letter-spacing="-2" fill="url(#tt)" filter="url(#ts)"><tspan x="72" y="268">Khu vườn</tspan><tspan x="72" y="344">CuongMini</tspan></text>
<text x="74" y="406" font-size="25" font-weight="600" fill="#ffffff" fill-opacity="0.78">Gieo · tưới · thu hoạch — 12 ngày</text>
<g transform="translate(72 600)"><circle r="7" cx="7" cy="-6" fill="#bef264"/><text x="24" y="0" font-size="17" font-weight="700" fill="#ffffff" fill-opacity="0.6" letter-spacing="1">cuongthai.com · Trò chơi</text></g>
</g>
</svg>