<svg xmlns="http://www.w3.org/2000/svg" viewBox="0 0 1200 675" width="1200" height="675">
<defs>
<linearGradient id="n" x1="0" y1="0" x2="1" y2="1"><stop offset="0" stop-color="#141a3d"/><stop offset="1" stop-color="#0a0d24"/></linearGradient>
<radialGradient id="q" cx="0.5" cy="0.4" r="0.6"><stop offset="0" stop-color="#6366f1" stop-opacity="0.5"/><stop offset="1" stop-color="#6366f1" stop-opacity="0"/></radialGradient>
<filter id="g" x="-50%" y="-50%" width="200%" height="200%"><feGaussianBlur stdDeviation="14" result="b"/><feMerge><feMergeNode in="b"/><feMergeNode in="SourceGraphic"/></feMerge></filter>
</defs>
<rect width="1200" height="675" fill="url(#n)"/><rect width="1200" height="675" fill="url(#q)"/>
<g fill="#fff" opacity="0.55"><circle cx="558" cy="308" r="1"/><circle cx="318" cy="449" r="1.8"/><circle cx="776" cy="644" r="1.8"/><circle cx="672" cy="148" r="1.8"/><circle cx="1075" cy="652" r="1.8"/><circle cx="130" cy="487" r="1.8"/><circle cx="1165" cy="421" r="1.3"/><circle cx="837" cy="423" r="1"/><circle cx="1006" cy="430" r="1"/><circle cx="410" cy="88" r="1"/><circle cx="922" cy="186" r="1"/><circle cx="716" cy="635" r="1"/><circle cx="229" cy="20" r="1.8"/><circle cx="329" cy="569" r="1"/></g>
<rect x="420" y="150" width="112" height="112" rx="18" fill="#fff" fill-opacity="0.05" stroke="#a5b4fc" stroke-opacity="0.25"/><polygon points="450.0,188.0 465.6,215.0 434.4,215.0" fill="#22d3ee" stroke="#22d3ee" stroke-width="5"/><rect x="545" y="150" width="112" height="112" rx="18" fill="#fff" fill-opacity="0.05" stroke="#a5b4fc" stroke-opacity="0.25"/><polygon points="575.0,188.0 590.6,215.0 559.4,215.0" fill="#f472b6" stroke="#f472b6" stroke-width="5"/><polygon points="601.0,188.0 616.6,215.0 585.4,215.0" fill="#f472b6" stroke="#f472b6" stroke-width="5"/><rect x="670" y="150" width="112" height="112" rx="18" fill="#fff" fill-opacity="0.05" stroke="#a5b4fc" stroke-opacity="0.25"/><polygon points="700.0,188.0 715.6,215.0 684.4,215.0" fill="#facc15" stroke="#facc15" stroke-width="5"/><polygon points="726.0,188.0 741.6,215.0 710.4,215.0" fill="#facc15" stroke="#facc15" stroke-width="5"/><polygon points="752.0,188.0 767.6,215.0 736.4,215.0" fill="#facc15" stroke="#facc15" stroke-width="5"/><rect x="420" y="275" width="112" height="112" rx="18" fill="#fff" fill-opacity="0.05" stroke="#a5b4fc" stroke-opacity="0.25"/><polygon points="450.0,313.0 465.6,340.0 434.4,340.0" fill="none" stroke="#f472b6" stroke-width="5"/><rect x="545" y="275" width="112" height="112" rx="18" fill="#fff" fill-opacity="0.05" stroke="#a5b4fc" stroke-opacity="0.25"/><polygon points="575.0,313.0 590.6,340.0 559.4,340.0" fill="none" stroke="#facc15" stroke-width="5"/><polygon points="601.0,313.0 616.6,340.0 585.4,340.0" fill="none" stroke="#facc15" stroke-width="5"/><rect x="670" y="275" width="112" height="112" rx="18" fill="#fff" fill-opacity="0.05" stroke="#a5b4fc" stroke-opacity="0.25"/><polygon points="700.0,313.0 715.6,340.0 684.4,340.0" fill="none" stroke="#22d3ee" stroke-width="5"/><polygon points="726.0,313.0 741.6,340.0 710.4,340.0" fill="none" stroke="#22d3ee" stroke-width="5"/><polygon points="752.0,313.0 767.6,340.0 736.4,340.0" fill="none" stroke="#22d3ee" stroke-width="5"/><rect x="420" y="400" width="112" height="112" rx="18" fill="#fff" fill-opacity="0.05" stroke="#a5b4fc" stroke-opacity="0.25"/><polygon points="450.0,438.0 465.6,465.0 434.4,465.0" fill="#facc15" stroke="#facc15" stroke-width="5"/><rect x="545" y="400" width="112" height="112" rx="18" fill="#fff" fill-opacity="0.05" stroke="#a5b4fc" stroke-opacity="0.25"/><polygon points="575.0,438.0 590.6,465.0 559.4,465.0" fill="#22d3ee" stroke="#22d3ee" stroke-width="5"/><polygon points="601.0,438.0 616.6,465.0 585.4,465.0" fill="#22d3ee" stroke="#22d3ee" stroke-width="5"/><rect x="670" y="400" width="112" height="112" rx="18" fill="#fff" fill-opacity="0.05" stroke="#a5b4fc" stroke-opacity="0.25"/><text x="726" y="476" font-family="system-ui" font-weight="900" font-size="60" text-anchor="middle" fill="#c4b5fd">?</text>
</svg>