<svg xmlns="http://www.w3.org/2000/svg" viewBox="0 0 1200 675" width="1200" height="675">
<defs>
<linearGradient id="n" x1="0" y1="0" x2="1" y2="1"><stop offset="0" stop-color="#1e1b4b"/><stop offset="1" stop-color="#f472b6"/></linearGradient>
<radialGradient id="q" cx="0.5" cy="0.4" r="0.6"><stop offset="0" stop-color="#f472b6" stop-opacity="0.5"/><stop offset="1" stop-color="#f472b6" stop-opacity="0"/></radialGradient>
<filter id="g" x="-50%" y="-50%" width="200%" height="200%"><feGaussianBlur stdDeviation="14" result="b"/><feMerge><feMergeNode in="b"/><feMergeNode in="SourceGraphic"/></feMerge></filter>
</defs>
<rect width="1200" height="675" fill="url(#n)"/><rect width="1200" height="675" fill="url(#q)"/>
<g fill="#fff" opacity="0.55"><circle cx="1157" cy="514" r="1"/><circle cx="1167" cy="78" r="1"/><circle cx="411" cy="303" r="1"/><circle cx="220" cy="539" r="1.3"/><circle cx="1170" cy="48" r="1"/><circle cx="927" cy="353" r="1.8"/><circle cx="1055" cy="640" r="1.8"/><circle cx="428" cy="303" r="1.3"/><circle cx="1060" cy="566" r="1.3"/><circle cx="1059" cy="273" r="1.8"/><circle cx="1091" cy="285" r="1.8"/><circle cx="434" cy="478" r="1"/><circle cx="873" cy="144" r="1.3"/><circle cx="925" cy="343" r="1"/></g>
<path d="M0 420 L250 220 L420 420 Z" fill="#6d28d9" opacity="0.8"/><path d="M780 420 L1000 200 L1200 420 Z" fill="#6d28d9" opacity="0.8"/>
<circle cx="600" cy="300" r="110" fill="#fde68a" filter="url(#g)"/>
<path d="M560 330 L640 330 L1000 675 L200 675 Z" fill="#312e81"/><path d="M560 330 L200 675 L180 675 L556 330 Z" fill="#f0abfc"/><path d="M640 330 L1000 675 L1020 675 L644 330 Z" fill="#f0abfc"/>
<g fill="#a5b4fc" opacity="0.7"><rect x="585" y="420" width="6" height="40"/><rect x="608" y="420" width="6" height="40"/><rect x="560" y="520" width="9" height="60"/><rect x="630" y="520" width="9" height="60"/></g>
<g transform="translate(600 520)"><ellipse cy="70" rx="70" ry="14" fill="#1e1b4b" opacity="0.5"/><ellipse cy="20" rx="56" ry="48" fill="#fbf9ff"/><ellipse cy="-70" rx="66" ry="56" fill="#fbf9ff"/><rect x="-48" y="-102" width="96" height="58" rx="29" fill="#141a3c"/><ellipse cx="-20" cy="-74" rx="8" ry="12" fill="#5eeefc"/><ellipse cx="20" cy="-74" rx="8" ry="12" fill="#5eeefc"/><path d="M-12 -58 q12 10 24 0" stroke="#5eeefc" stroke-width="5" fill="none" stroke-linecap="round"/><circle cx="8" cy="-138" r="9" fill="#fde047"/></g>
<g fill="#fde047" filter="url(#g)"><path d="M420 470 l10 22 24 3 -18 16 5 24 -21 -12 -21 12 5 -24 -18 -16 24 -3z"/><path d="M820 450 l8 18 20 2 -15 13 4 20 -17 -10 -17 10 4 -20 -15 -13 20 -2z"/></g>
<g fill="#22d3ee" opacity="0.9"><circle cx="700" cy="430" r="18"/></g>
</svg>