<svg xmlns="http://www.w3.org/2000/svg" viewBox="0 0 1200 675" width="1200" height="675">
<defs>
<linearGradient id="n" x1="0" y1="0" x2="1" y2="1"><stop offset="0" stop-color="#0b2a33"/><stop offset="1" stop-color="#071218"/></linearGradient>
<radialGradient id="q" cx="0.5" cy="0.4" r="0.6"><stop offset="0" stop-color="#22d3ee" stop-opacity="0.5"/><stop offset="1" stop-color="#22d3ee" stop-opacity="0"/></radialGradient>
<filter id="g" x="-50%" y="-50%" width="200%" height="200%"><feGaussianBlur stdDeviation="14" result="b"/><feMerge><feMergeNode in="b"/><feMergeNode in="SourceGraphic"/></feMerge></filter>
</defs>
<rect width="1200" height="675" fill="url(#n)"/><rect width="1200" height="675" fill="url(#q)"/>
<g fill="#fff" opacity="0.55"><circle cx="771" cy="191" r="1.3"/><circle cx="476" cy="565" r="1.8"/><circle cx="1049" cy="357" r="1.8"/><circle cx="476" cy="647" r="1"/><circle cx="510" cy="430" r="1.8"/><circle cx="484" cy="224" r="1.8"/><circle cx="1029" cy="384" r="1.8"/><circle cx="79" cy="48" r="1.3"/><circle cx="987" cy="285" r="1"/><circle cx="725" cy="477" r="1.8"/><circle cx="735" cy="393" r="1"/><circle cx="471" cy="124" r="1"/><circle cx="982" cy="221" r="1.3"/><circle cx="438" cy="514" r="1.8"/></g>
<rect x="372" y="110" width="456" height="456" rx="14" fill="#0b2a33" stroke="#67e8f9" stroke-opacity="0.5" stroke-width="3"/><line x1="422.7" y1="110" x2="422.7" y2="566" stroke="#67e8f9" stroke-opacity="0.18" stroke-width="1"/><line x1="372" y1="160.7" x2="828" y2="160.7" stroke="#67e8f9" stroke-opacity="0.18" stroke-width="1"/><line x1="473.4" y1="110" x2="473.4" y2="566" stroke="#67e8f9" stroke-opacity="0.18" stroke-width="1"/><line x1="372" y1="211.4" x2="828" y2="211.4" stroke="#67e8f9" stroke-opacity="0.18" stroke-width="1"/><line x1="524.1" y1="110" x2="524.1" y2="566" stroke="#67e8f9" stroke-opacity="0.55" stroke-width="3"/><line x1="372" y1="262.1" x2="828" y2="262.1" stroke="#67e8f9" stroke-opacity="0.55" stroke-width="3"/><line x1="574.8" y1="110" x2="574.8" y2="566" stroke="#67e8f9" stroke-opacity="0.18" stroke-width="1"/><line x1="372" y1="312.8" x2="828" y2="312.8" stroke="#67e8f9" stroke-opacity="0.18" stroke-width="1"/><line x1="625.5" y1="110" x2="625.5" y2="566" stroke="#67e8f9" stroke-opacity="0.18" stroke-width="1"/><line x1="372" y1="363.5" x2="828" y2="363.5" stroke="#67e8f9" stroke-opacity="0.18" stroke-width="1"/><line x1="676.2" y1="110" x2="676.2" y2="566" stroke="#67e8f9" stroke-opacity="0.55" stroke-width="3"/><line x1="372" y1="414.2" x2="828" y2="414.2" stroke="#67e8f9" stroke-opacity="0.55" stroke-width="3"/><line x1="726.9" y1="110" x2="726.9" y2="566" stroke="#67e8f9" stroke-opacity="0.18" stroke-width="1"/><line x1="372" y1="464.9" x2="828" y2="464.9" stroke="#67e8f9" stroke-opacity="0.18" stroke-width="1"/><line x1="777.6" y1="110" x2="777.6" y2="566" stroke="#67e8f9" stroke-opacity="0.18" stroke-width="1"/><line x1="372" y1="515.6" x2="828" y2="515.6" stroke="#67e8f9" stroke-opacity="0.18" stroke-width="1"/><text x="397.3" y="146.0" font-family="system-ui" font-weight="700" font-size="28" text-anchor="middle" fill="#ecfeff">5</text><text x="448.0" y="146.0" font-family="system-ui" font-weight="700" font-size="28" text-anchor="middle" fill="#ecfeff">3</text><text x="600.1" y="146.0" font-family="system-ui" font-weight="700" font-size="28" text-anchor="middle" fill="#ecfeff">7</text><text x="397.3" y="196.7" font-family="system-ui" font-weight="700" font-size="28" text-anchor="middle" fill="#ecfeff">6</text><text x="549.4" y="196.7" font-family="system-ui" font-weight="700" font-size="28" text-anchor="middle" fill="#ecfeff">1</text><text x="600.1" y="196.7" font-family="system-ui" font-weight="700" font-size="28" text-anchor="middle" fill="#ecfeff">9</text><text x="650.8" y="196.7" font-family="system-ui" font-weight="700" font-size="28" text-anchor="middle" fill="#ecfeff">5</text><text x="448.0" y="247.4" font-family="system-ui" font-weight="700" font-size="28" text-anchor="middle" fill="#ecfeff">9</text><text x="498.7" y="247.4" font-family="system-ui" font-weight="700" font-size="28" text-anchor="middle" fill="#ecfeff">8</text><text x="752.2" y="247.4" font-family="system-ui" font-weight="700" font-size="28" text-anchor="middle" fill="#ecfeff">6</text><text x="397.3" y="298.1" font-family="system-ui" font-weight="700" font-size="28" text-anchor="middle" fill="#ecfeff">8</text><text x="600.1" y="298.1" font-family="system-ui" font-weight="700" font-size="28" text-anchor="middle" fill="#ecfeff">6</text><text x="802.9" y="298.1" font-family="system-ui" font-weight="700" font-size="28" text-anchor="middle" fill="#ecfeff">3</text><text x="397.3" y="348.8" font-family="system-ui" font-weight="700" font-size="28" text-anchor="middle" fill="#ecfeff">4</text><text x="549.4" y="348.8" font-family="system-ui" font-weight="700" font-size="28" text-anchor="middle" fill="#ecfeff">8</text><text x="650.8" y="348.8" font-family="system-ui" font-weight="700" font-size="28" text-anchor="middle" fill="#ecfeff">3</text><text x="802.9" y="348.8" font-family="system-ui" font-weight="700" font-size="28" text-anchor="middle" fill="#ecfeff">1</text><text x="397.3" y="399.5" font-family="system-ui" font-weight="700" font-size="28" text-anchor="middle" fill="#ecfeff">7</text><text x="600.1" y="399.5" font-family="system-ui" font-weight="700" font-size="28" text-anchor="middle" fill="#ecfeff">2</text><text x="802.9" y="399.5" font-family="system-ui" font-weight="700" font-size="28" text-anchor="middle" fill="#ecfeff">6</text><text x="448.0" y="450.2" font-family="system-ui" font-weight="700" font-size="28" text-anchor="middle" fill="#ecfeff">6</text><text x="701.5" y="450.2" font-family="system-ui" font-weight="700" font-size="28" text-anchor="middle" fill="#ecfeff">2</text><text x="752.2" y="450.2" font-family="system-ui" font-weight="700" font-size="28" text-anchor="middle" fill="#ecfeff">8</text><text x="549.4" y="500.9" font-family="system-ui" font-weight="700" font-size="28" text-anchor="middle" fill="#ecfeff">4</text><text x="600.1" y="500.9" font-family="system-ui" font-weight="700" font-size="28" text-anchor="middle" fill="#ecfeff">1</text><text x="650.8" y="500.9" font-family="system-ui" font-weight="700" font-size="28" text-anchor="middle" fill="#ecfeff">9</text><text x="802.9" y="500.9" font-family="system-ui" font-weight="700" font-size="28" text-anchor="middle" fill="#ecfeff">5</text><text x="600.1" y="551.6" font-family="system-ui" font-weight="700" font-size="28" text-anchor="middle" fill="#ecfeff">8</text><text x="752.2" y="551.6" font-family="system-ui" font-weight="700" font-size="28" text-anchor="middle" fill="#ecfeff">7</text><text x="802.9" y="551.6" font-family="system-ui" font-weight="700" font-size="28" text-anchor="middle" fill="#ecfeff">9</text><rect x="473.4" y="211.4" width="50.7" height="50.7" fill="#22d3ee" fill-opacity="0.45" filter="url(#g)"/>
</svg>